#!OML:ASF F:\VICON\USERDATA\INSTALL\rory3\rory3.ASF
:FULLY-SPECIFIED
:DEGREES
308
root 1.9727 16.6793 14.0206 24.5567 1.67733 3.71468
lowerback -18.6895 0.538844 -1.91305
upperback -5.77948 1.1309 -1.08898
thorax 4.22889 0.560173 0.177855
lowerneck -11.8087 -1.09375 -1.79908
upperneck 37.4901 -1.18988 0.32391
head 15.035 -0.689854 0.275601
rclavicle -1.58158e-014 1.76918e-014
rhumerus -46.8579 7.75322 -87.2296
rradius 19.5774
rwrist -6.26383
rhand 17.5811 9.50703
rfingers 7.12502
rthumb 42.2754 -14.9901
lclavicle -1.58158e-014 1.76918e-014
lhumerus -55.1526 -10.3943 87.0283
lradius 32.2899
lwrist 9.80597
lhand 25.2126 19.9213
lfingers 7.12502
lthumb 49.3563 41.4756
rfemur -47.3638 4.24151 28.5656
rtibia 40.635
rfoot -45.789 -29.9961
rtoes 39.1124
lfemur -22.5523 16.729 -31.8704
ltibia 48.5764
lfoot 17.3637 34.1698
ltoes 28.7981
309
root 1.97246 16.6774 13.9963 24.6242 1.81627 3.76036
lowerback -18.5446 0.487673 -1.8169
upperback -5.92201 1.04065 -1.10438
thorax 4.0044 0.51819 0.0847283
lowerneck -11.4747 -1.06341 -1.73742
upperneck 37.4158 -1.15275 0.281576
head 14.919 -0.671705 0.25445
rclavicle 2.44381e-014 -7.35503e-015
rhumerus -47.1337 8.22732 -87.6391
rradius 19.6242
rwrist -6.83381
rhand 17.0115 10.418
rfingers 7.12502
rthumb 41.7415 -14.2581
lclavicle 2.44381e-014 -7.35503e-015
lhumerus -55.2818 -10.2634 86.8893
lradius 32.1739
lwrist 9.67157
lhand 25.1935 19.9
lfingers 7.12502
lthumb 49.3387 41.4631
rfemur -47.4826 4.3875 28.4368
rtibia 40.5277
rfoot -46.0705 -30.0305
rtoes 39.5723
lfemur -22.5172 16.5272 -31.9325
ltibia 48.4828
lfoot 16.6021 33.9329
ltoes 30.0328
310
root 1.97636 16.676 13.9715 24.5996 2.20815 3.48619
lowerback -18.533 0.446132 -1.28471
upperback -5.8337 0.887134 -1.02307
thorax 4.10215 0.440678 -0.163399
lowerneck -11.5421 -1.0227 -1.63325
upperneck 37.3586 -1.06823 0.142925
head 14.9039 -0.639967 0.190793
rclavicle -3.23025e-016 5.36719e-015
rhumerus -46.9526 8.5391 -87.8433
rradius 19.6052
rwrist -7.184
rhand 17.3344 9.234
rfingers 7.12502
rthumb 42.0443 -15.3412
lclavicle -3.23025e-016 5.36719e-015
lhumerus -55.1442 -10.1192 86.7317
lradius 32.3
lwrist 9.59218
lhand 25.0758 19.8358
lfingers 7.12502
lthumb 49.2307 41.4533
rfemur -47.4155 4.23844 28.8216
rtibia 40.3492
rfoot -46.1956 -29.9206
rtoes 39.8248
lfemur -22.4837 16.2417 -31.5457
ltibia 48.5116
lfoot 15.942 33.8769
ltoes 31.1487
311
root 1.97436 16.6756 13.9452 24.4824 2.38737 3.28661
lowerback -18.487 0.456805 -0.986223
upperback -5.65973 0.845844 -0.969026
thorax 4.26764 0.418987 -0.283812
lowerneck -11.9127 -1.03199 -1.45955
upperneck 37.4655 -1.06235 -0.0252552
head 15.0399 -0.635545 0.0880978
rclavicle -1.49089e-015 4.17448e-015
rhumerus -46.724 8.58689 -87.8428
rradius 19.7649
rwrist -7.25175
rhand 16.8858 9.94458
rfingers 7.12502
rthumb 41.6237 -14.7703
lclavicle -1.49089e-015 4.17448e-015
lhumerus -54.8656 -10.0618 86.5907
lradius 32.4185
lwrist 9.47408
lhand 24.9557 19.8809
lfingers 7.12502
lthumb 49.1205 41.5535
rfemur -47.2556 4.65545 28.8722
rtibia 40.1569
rfoot -46.7755 -29.9424
rtoes 40.1657
lfemur -22.5589 16.0637 -31.2638
ltibia 48.5805
lfoot 19.2244 32.326
ltoes 25.8789
312
root 1.97107 16.6777 13.9243 24.4165 2.4433 3.28804
lowerback -18.33 0.440191 -0.927872
upperback -5.6677 0.810226 -0.956735
thorax 4.17737 0.401831 -0.312871
lowerneck -12.2103 -1.03031 -1.45437
upperneck 37.7786 -1.06066 -0.0151756
head 15.2641 -0.632743 0.089207
rclavicle -2.02885e-014 1.19271e-014
rhumerus -46.8036 8.86859 -88.0467
rradius 19.8982
rwrist -7.65157
rhand 16.5563 10.4752
rfingers 7.12502
rthumb 41.3145 -14.3404
lclavicle -2.02885e-014 1.19271e-014
lhumerus -54.8117 -10.0551 86.5305
lradius 32.4061
lwrist 9.46555
lhand 24.6299 19.8049
lfingers 7.12502
lthumb 48.8212 41.6253
rfemur -47.1653 5.06989 28.6868
rtibia 40.0055
rfoot -47.3525 -29.9763
rtoes 40.3369
lfemur -22.5958 15.8997 -31.2521
ltibia 48.6052
lfoot 22.1142 30.456
ltoes 19.7916
313
root 1.97138 16.6725 13.9094 24.5186 2.55726 3.30255
lowerback -18.3411 0.417274 -0.867738
upperback -5.81921 0.766984 -0.938423
thorax 4.02228 0.381455 -0.337468
lowerneck -12.0001 -1.00775 -1.39207
upperneck 37.8839 -1.03957 -0.036666
head 15.2652 -0.617733 0.0734449
rclavicle 1.34304e-014 1.19271e-015
rhumerus -47.033 9.11483 -88.2246
rradius 19.852
rwrist -7.98167
rhand 17.761 8.31781
rfingers 7.12502
rthumb 42.4439 -16.1218
lclavicle 1.34304e-014 1.19271e-015
lhumerus -54.9616 -9.99906 86.4263
lradius 32.379
lwrist 9.29834
lhand 24.4208 19.4736
lfingers 7.12502
lthumb 48.6289 41.3876
rfemur -47.2945 5.20783 28.5952
rtibia 39.9496
rfoot -47.7232 -29.8445
rtoes 40.6995
lfemur -22.5574 15.7368 -31.2979
ltibia 48.5114
lfoot 21.9897 30.1255
ltoes 19.8776
314
root 1.96957 16.6683 13.8898 24.6024 2.60636 3.44404
lowerback -18.3297 0.374293 -0.971074
upperback -5.88944 0.728804 -0.95131
thorax 3.94023 0.363283 -0.301017
lowerneck -11.7632 -0.999024 -1.45262
upperneck 37.8234 -1.05973 0.0862595
head 15.1807 -0.618151 0.134466
rclavicle -9.83984e-015 -7.95139e-016
rhumerus -47.1138 9.22483 -88.2221
rradius 19.9631
rwrist -8.16186
rhand 17.809 8.30257
rfingers 7.12502
rthumb 42.4888 -16.1216
lclavicle -9.83984e-015 -7.95139e-016
lhumerus -54.9706 -10.0595 86.4121
lradius 32.3684
lwrist 9.27506
lhand 24.4053 19.6846
lfingers 7.12502
lthumb 48.6146 41.6055
rfemur -47.4836 5.3267 28.3615
rtibia 39.9737
rfoot -47.9812 -29.6978
rtoes 40.9587
lfemur -22.461 15.4628 -31.4633
ltibia 48.3316
lfoot 20.8221 30.5395
ltoes 22.3271
315
root 1.97061 16.6717 13.873 24.6386 2.75298 3.62046
lowerback -18.3827 0.270257 -1.04772
upperback -5.80782 0.607618 -0.947648
thorax 4.0542 0.302935 -0.278861
lowerneck -11.8794 -0.978133 -1.61585
upperneck 37.7151 -1.04045 0.243481
head 15.1572 -0.611948 0.232431
rclavicle 7.77745e-015 -1.03368e-014
rhumerus -47.0333 9.34797 -88.1487
rradius 20.2779
rwrist -8.27764
rhand 16.2666 10.3144
rfingers 7.12502
rthumb 41.0425 -14.5885
lclavicle 7.77745e-015 -1.03368e-014
lhumerus -54.7479 -10.0332 86.3853
lradius 32.4679
lwrist 9.22558
lhand 24.4603 20.629
lfingers 7.12502
lthumb 48.6652 42.5254
rfemur -47.6144 5.18025 28.1952
rtibia 40.002
rfoot -48.0553 -29.5429
rtoes 41.1882
lfemur -22.3639 15.1554 -31.6112
ltibia 48.1237
lfoot 20.7804 30.1662
ltoes 23.3634
316
root 1.97482 16.6751 13.8649 24.6326 3.0095 3.6129
lowerback -18.546 0.219962 -0.853859
upperback -5.66532 0.509191 -0.912259
thorax 4.29352 0.253221 -0.371506
lowerneck -12.0974 -0.986608 -1.77766
upperneck 37.6097 -1.03667 0.333087
head 15.1592 -0.620763 0.298649
rclavicle 2.70099e-014 -2.66371e-014
rhumerus -46.9125 9.37382 -88.0576
rradius 20.5685
rwrist -8.39724
rhand 16.231 10.3818
rfingers 7.12502
rthumb 41.0091 -14.5317
lclavicle 2.70099e-014 -2.66371e-014
lhumerus -54.5511 -10.0798 86.4319
lradius 32.654
lwrist 9.07355
lhand 24.0417 20.9431
lfingers 7.12502
lthumb 48.2799 43.0243
rfemur -47.6428 4.76208 28.364
rtibia 40.0122
rfoot -47.9996 -29.1225
rtoes 41.5368
lfemur -22.1969 14.8805 -31.5034
ltibia 47.9382
lfoot 19.9264 30.3336
ltoes 25.9247
317
root 1.97418 16.6768 13.8549 24.6298 3.29644 3.57179
lowerback -18.7942 0.149023 -0.690114
upperback -5.49116 0.388333 -0.858124
thorax 4.61044 0.192994 -0.432687
lowerneck -12.2817 -0.963696 -1.7617
upperneck 37.494 -0.964283 0.231301
head 15.1443 -0.60124 0.263708
rclavicle 1.86361e-014 -4.37326e-015
rhumerus -46.6801 9.30748 -87.9011
rradius 20.6298
rwrist -8.30444
rhand 16.3608 10.0138
rfingers 7.12502
rthumb 41.131 -14.8608
lclavicle 1.86361e-014 -4.37326e-015
lhumerus -54.3051 -10.1295 86.4112
lradius 32.7426
lwrist 8.88729
lhand 23.7006 20.5578
lfingers 7.12502
lthumb 47.9656 42.7867
rfemur -47.6597 4.57685 28.4854
rtibia 39.9958
rfoot -47.6528 -29.3906
rtoes 41.2613
lfemur -22.0873 14.6017 -31.3227
ltibia 47.785
lfoot 20.435 30.3905
ltoes 23.7347
318
root 1.97159 16.6789 13.8428 24.6935 3.38047 3.78809
lowerback -19.0507 0.0294135 -0.875366
upperback -5.39476 0.269906 -0.847779
thorax 4.84683 0.133444 -0.342773
lowerneck -12.334 -0.883027 -1.52133
upperneck 37.4448 -0.789313 -0.0935992
head 15.1268 -0.537306 0.112054
rclavicle 9.49197e-015 3.57812e-015
rhumerus -46.5536 9.51897 -87.9025
rradius 20.7454
rwrist -8.43197
rhand 16.9142 8.78361
rfingers 7.12502
rthumb 41.6503 -15.9225
lclavicle 9.49197e-015 3.57812e-015
lhumerus -54.1715 -10.0363 86.3711
lradius 32.7606
lwrist 8.54734
lhand 23.586 20.0481
lfingers 7.12502
lthumb 47.8598 42.326
rfemur -47.7456 4.65187 28.17
rtibia 39.9847
rfoot -46.972 -30.3145
rtoes 39.9587
lfemur -22.1132 14.4406 -31.5062
ltibia 47.6462
lfoot 21.2546 28.8258
ltoes 22.8349
319
root 1.97219 16.6838 13.8341 24.7822 3.47845 4.04996
lowerback -19.266 -0.0828084 -1.08825
upperback -5.44588 0.165907 -0.84166
thorax 4.90417 0.0815496 -0.23906
lowerneck -12.0565 -0.835176 -1.4122
upperneck 37.4372 -0.676871 -0.296836
head 15.0551 -0.501537 0.0265931
rclavicle -4.39811e-015 1.23246e-014
rhumerus -46.7148 9.62787 -87.8248
rradius 20.9373
rwrist -8.45929
rhand 16.7029 8.68941
rfingers 7.12502
rthumb 41.4521 -16.0816
lclavicle -4.39811e-015 1.23246e-014
lhumerus -54.2259 -9.9864 86.3933
lradius 32.6984
lwrist 8.15004
lhand 23.4822 19.4272
lfingers 7.12502
lthumb 47.7641 41.7494
rfemur -47.8793 4.49086 27.9037
rtibia 39.9822
rfoot -46.3082 -31.1779
rtoes 38.5589
lfemur -22.09 14.1756 -31.75
ltibia 47.4908
lfoot 22.4988 27.4144
ltoes 19.8495
320
root 1.96612 16.6854 13.8183 24.8725 3.49133 4.22663
lowerback -19.155 -0.145303 -1.34087
upperback -5.65541 0.12717 -0.836058
thorax 4.62085 0.0638081 -0.0980084
lowerneck -11.9251 -0.843272 -1.23586
upperneck 37.6884 -0.677295 -0.465312
head 15.1451 -0.499701 -0.0760378
rclavicle -2.36057e-015 7.95139e-016
rhumerus -47.1091 9.72872 -87.8326
rradius 21.1027
rwrist -8.56938
rhand 16.4169 9.2293
rfingers 7.12502
rthumb 41.1837 -15.6284
lclavicle -2.36057e-015 7.95139e-016
lhumerus -54.526 -10.1735 86.5626
lradius 32.7837
lwrist 7.86409
lhand 23.3279 19.1536
lfingers 7.12502
lthumb 47.6217 41.541
rfemur -48.0513 4.98448 27.4707
rtibia 39.993
rfoot -46.7519 -31.6737
rtoes 38.2873
lfemur -22.1151 14.0309 -31.9269
ltibia 47.344
lfoot 23.1078 26.6191
ltoes 18.2186
321
root 1.95869 16.6868 13.7996 24.933 3.47363 4.38713
lowerback -18.7909 -0.161761 -1.58207
upperback -5.94495 0.140088 -0.857731
thorax 4.11984 0.074189 0.0193942
lowerneck -11.8809 -0.853983 -1.0327
upperneck 38.0072 -0.69413 -0.612187
head 15.2899 -0.497394 -0.178339
rclavicle -1.33931e-014 3.18055e-015
rhumerus -47.497 9.61436 -87.7537
rradius 21.1226
rwrist -8.74235
rhand 16.3897 9.6597
rfingers 7.12502
rthumb 41.1582 -15.2062
lclavicle -1.33931e-014 3.18055e-015
lhumerus -54.8804 -10.4232 86.7095
lradius 32.7851
lwrist 7.60077
lhand 23.1278 18.9228
lfingers 7.12502
lthumb 47.4369 41.3941
rfemur -48.2031 5.5905 27.0036
rtibia 39.9986
rfoot -47.3774 -32.1042
rtoes 38.211
lfemur -22.079 13.8986 -32.0891
ltibia 47.1836
lfoot 22.7232 26.9904
ltoes 20.0498
322
root 1.95509 16.6901 13.7869 24.9292 3.57181 4.53586
lowerback -18.592 -0.213225 -1.76008
upperback -6.06932 0.0970392 -0.828938
thorax 3.88284 0.0559028 0.141851
lowerneck -11.6404 -0.901888 -1.35279
upperneck 37.9121 -0.783987 -0.335203
head 15.1901 -0.542972 -0.016437
rclavicle 1.25731e-014 2.78299e-015
rhumerus -47.7302 9.87117 -87.8936
rradius 21.2012
rwrist -9.47929
rhand 16.1555 9.7788
rfingers 7.12502
rthumb 40.9382 -15.1572
lclavicle 1.25731e-014 2.78299e-015
lhumerus -54.98 -10.4589 86.7779
lradius 32.6555
lwrist 7.31448
lhand 22.7908 18.3566
lfingers 7.12502
lthumb 47.1254 40.9674
rfemur -48.2179 5.72233 26.7597
rtibia 39.9586
rfoot -47.757 -32.1581
rtoes 38.1809
lfemur -21.923 13.6993 -32.1645
ltibia 47.0313
lfoot 22.3255 27.2364
ltoes 21.3657
